<svg  fill={filled ? fill : "none"}
      height={size || height || 24}
      viewBox="0 0 24 24"
      width={size || width || 24}
      xmlns="http://www.w3.org/2000/svg"
      {...props}>
<path d="M18 7H6V17.2002C6 18.0566 6.00035 18.6388 6.03711 19.0889C6.07293 19.5273 6.13808 19.7518 6.21777 19.9082L6.29492 20.0459C6.48707 20.3592 6.76256 20.6145 7.0918 20.7822L7.22461 20.8389C7.37418 20.8924 7.58253 20.936 7.91113 20.9629C8.36117 20.9997 8.94341 21 9.7998 21H14.2002C15.0566 21 15.6388 20.9997 16.0889 20.9629C16.5273 20.9271 16.7518 20.8619 16.9082 20.7822L17.0459 20.7051C17.3592 20.5129 17.6145 20.2374 17.7822 19.9082L17.8389 19.7754C17.8924 19.6258 17.936 19.4175 17.9629 19.0889C17.9997 18.6388 18 18.0566 18 17.2002V7ZM9 16.5V11.5C9 10.9477 9.44772 10.5 10 10.5C10.5523 10.5 11 10.9477 11 11.5V16.5C11 17.0523 10.5523 17.5 10 17.5C9.44772 17.5 9 17.0523 9 16.5ZM13 16.5V11.5C13 10.9477 13.4477 10.5 14 10.5C14.5523 10.5 15 10.9477 15 11.5V16.5C15 17.0523 14.5523 17.5 14 17.5C13.4477 17.5 13 17.0523 13 16.5ZM11.2002 3C10.6236 3 10.2511 3.00127 9.96777 3.02442C9.76434 3.04104 9.65667 3.06565 9.59473 3.0879L9.5459 3.10938C9.40484 3.1813 9.28366 3.28523 9.19141 3.41211L9.10938 3.5459C9.08419 3.59534 9.04661 3.69619 9.02441 3.96778C9.00406 4.21692 9.00142 4.5349 9.00098 5H14.999C14.9986 4.5349 14.9959 4.21692 14.9756 3.96778C14.959 3.76435 14.9344 3.65668 14.9121 3.59473L14.8906 3.5459C14.8187 3.40484 14.7148 3.28366 14.5879 3.19141L14.4541 3.10938C14.4047 3.08419 14.3038 3.04662 14.0322 3.02442C13.7489 3.00127 13.3764 3 12.7998 3H11.2002ZM20 17.2002C20 18.0237 20.001 18.7016 19.9561 19.252C19.9159 19.7438 19.8356 20.2011 19.6504 20.6328L19.5645 20.8164C19.2289 21.4749 18.7183 22.0259 18.0918 22.4102L17.8164 22.5645C17.3311 22.8117 16.814 22.9101 16.252 22.9561C15.7016 23.001 15.0237 23 14.2002 23H9.7998C8.97631 23 8.29843 23.001 7.74805 22.9561C7.2562 22.9159 6.79892 22.8356 6.36719 22.6504L6.18359 22.5645C5.52512 22.2289 4.97413 21.7183 4.58984 21.0918L4.43555 20.8164C4.18827 20.3311 4.08987 19.814 4.04395 19.252C3.99898 18.7016 4 18.0237 4 17.2002V7H3C2.44772 7 2 6.55229 2 6C2 5.44772 2.44772 5 3 5H7.00098C7.00126 4.54097 7.00284 4.14047 7.03027 3.80469C7.06258 3.40943 7.1344 3.016 7.32715 2.6377L7.44238 2.43165C7.73057 1.96167 8.14381 1.57888 8.6377 1.32715L8.78027 1.25977C9.11438 1.11652 9.45881 1.05855 9.80469 1.03028C10.1884 0.998931 10.6566 1 11.2002 1H12.7998C13.3434 1 13.8116 0.998931 14.1953 1.03028C14.5906 1.06259 14.984 1.1344 15.3623 1.32715L15.5684 1.44239C16.0383 1.73058 16.4211 2.14381 16.6729 2.6377L16.7402 2.78028C16.8835 3.11438 16.9415 3.45882 16.9697 3.80469C16.9972 4.14047 16.9987 4.54097 16.999 5H21C21.5523 5 22 5.44772 22 6C22 6.55229 21.5523 7 21 7H20V17.2002Z" fill="black"/>
</svg>
